<mxfile host="app.diagrams.net" modified="2023-05-28T19:53:30.899Z" agent="Mozilla/5.0 (Windows NT 10.0; Win64; x64) AppleWebKit/537.36 (KHTML, like Gecko) Chrome/113.0.0.0 Safari/537.36" etag="LJi7OO_beyMkBE_B0vQk" version="21.3.2" type="github">
  <diagram id="yPxyJZ8AM_hMuL3Unpa9" name="gitflow">
    <mxGraphModel dx="1050" dy="587" grid="0" gridSize="10" guides="1" tooltips="1" connect="1" arrows="1" fold="1" page="0" pageScale="1" pageWidth="850" pageHeight="1100" math="0" shadow="0">
      <root>
        <mxCell id="0" />
        <mxCell id="1" parent="0" />
        <mxCell id="lTPYHdYdrnt9JmBALhy5-192" style="edgeStyle=orthogonalEdgeStyle;rounded=0;orthogonalLoop=1;jettySize=auto;html=1;entryX=0;entryY=0.5;entryDx=0;entryDy=0;" edge="1" parent="1" source="lTPYHdYdrnt9JmBALhy5-178" target="lTPYHdYdrnt9JmBALhy5-179">
          <mxGeometry relative="1" as="geometry" />
        </mxCell>
        <mxCell id="lTPYHdYdrnt9JmBALhy5-178" value="原始数据" style="shape=cylinder3;whiteSpace=wrap;html=1;boundedLbl=1;backgroundOutline=1;size=15;" vertex="1" parent="1">
          <mxGeometry x="76" y="142" width="60" height="80" as="geometry" />
        </mxCell>
        <mxCell id="lTPYHdYdrnt9JmBALhy5-191" style="edgeStyle=orthogonalEdgeStyle;rounded=0;orthogonalLoop=1;jettySize=auto;html=1;exitX=1;exitY=0.5;exitDx=0;exitDy=0;entryX=0;entryY=0.5;entryDx=0;entryDy=0;" edge="1" parent="1" source="lTPYHdYdrnt9JmBALhy5-179" target="lTPYHdYdrnt9JmBALhy5-184">
          <mxGeometry relative="1" as="geometry" />
        </mxCell>
        <mxCell id="lTPYHdYdrnt9JmBALhy5-193" style="edgeStyle=orthogonalEdgeStyle;rounded=0;orthogonalLoop=1;jettySize=auto;html=1;exitX=0.5;exitY=1;exitDx=0;exitDy=0;entryX=0;entryY=0.5;entryDx=0;entryDy=0;" edge="1" parent="1" source="lTPYHdYdrnt9JmBALhy5-179" target="lTPYHdYdrnt9JmBALhy5-185">
          <mxGeometry relative="1" as="geometry" />
        </mxCell>
        <mxCell id="lTPYHdYdrnt9JmBALhy5-179" value="数据预处理" style="rounded=1;whiteSpace=wrap;html=1;" vertex="1" parent="1">
          <mxGeometry x="174" y="152" width="120" height="60" as="geometry" />
        </mxCell>
        <mxCell id="lTPYHdYdrnt9JmBALhy5-188" style="edgeStyle=orthogonalEdgeStyle;rounded=0;orthogonalLoop=1;jettySize=auto;html=1;entryX=0;entryY=0.5;entryDx=0;entryDy=0;" edge="1" parent="1" source="lTPYHdYdrnt9JmBALhy5-180" target="lTPYHdYdrnt9JmBALhy5-182">
          <mxGeometry relative="1" as="geometry">
            <mxPoint x="607.6000366210938" y="172" as="targetPoint" />
          </mxGeometry>
        </mxCell>
        <mxCell id="lTPYHdYdrnt9JmBALhy5-180" value="词嵌入&lt;br&gt;建图" style="rounded=1;whiteSpace=wrap;html=1;" vertex="1" parent="1">
          <mxGeometry x="463" y="152" width="120" height="60" as="geometry" />
        </mxCell>
        <mxCell id="lTPYHdYdrnt9JmBALhy5-189" value="" style="edgeStyle=orthogonalEdgeStyle;rounded=0;orthogonalLoop=1;jettySize=auto;html=1;" edge="1" parent="1" source="lTPYHdYdrnt9JmBALhy5-182" target="lTPYHdYdrnt9JmBALhy5-183">
          <mxGeometry relative="1" as="geometry" />
        </mxCell>
        <mxCell id="lTPYHdYdrnt9JmBALhy5-182" value="特征提取" style="rounded=1;whiteSpace=wrap;html=1;" vertex="1" parent="1">
          <mxGeometry x="608" y="152" width="120" height="60" as="geometry" />
        </mxCell>
        <mxCell id="lTPYHdYdrnt9JmBALhy5-190" style="edgeStyle=orthogonalEdgeStyle;rounded=0;orthogonalLoop=1;jettySize=auto;html=1;" edge="1" parent="1" source="lTPYHdYdrnt9JmBALhy5-183" target="lTPYHdYdrnt9JmBALhy5-186">
          <mxGeometry relative="1" as="geometry" />
        </mxCell>
        <mxCell id="lTPYHdYdrnt9JmBALhy5-183" value="情感分类" style="rounded=1;whiteSpace=wrap;html=1;" vertex="1" parent="1">
          <mxGeometry x="608" y="228" width="120" height="60" as="geometry" />
        </mxCell>
        <mxCell id="lTPYHdYdrnt9JmBALhy5-187" value="" style="edgeStyle=orthogonalEdgeStyle;rounded=0;orthogonalLoop=1;jettySize=auto;html=1;" edge="1" parent="1" source="lTPYHdYdrnt9JmBALhy5-184" target="lTPYHdYdrnt9JmBALhy5-180">
          <mxGeometry relative="1" as="geometry" />
        </mxCell>
        <mxCell id="lTPYHdYdrnt9JmBALhy5-184" value="训练集" style="rounded=1;whiteSpace=wrap;html=1;" vertex="1" parent="1">
          <mxGeometry x="315" y="152" width="120" height="60" as="geometry" />
        </mxCell>
        <mxCell id="lTPYHdYdrnt9JmBALhy5-194" style="edgeStyle=orthogonalEdgeStyle;rounded=0;orthogonalLoop=1;jettySize=auto;html=1;entryX=0;entryY=0.5;entryDx=0;entryDy=0;" edge="1" parent="1" source="lTPYHdYdrnt9JmBALhy5-185" target="lTPYHdYdrnt9JmBALhy5-186">
          <mxGeometry relative="1" as="geometry" />
        </mxCell>
        <mxCell id="lTPYHdYdrnt9JmBALhy5-185" value="测试集" style="rounded=1;whiteSpace=wrap;html=1;" vertex="1" parent="1">
          <mxGeometry x="368" y="314" width="120" height="60" as="geometry" />
        </mxCell>
        <mxCell id="lTPYHdYdrnt9JmBALhy5-186" value="性能评估" style="rhombus;whiteSpace=wrap;html=1;" vertex="1" parent="1">
          <mxGeometry x="628" y="304" width="80" height="80" as="geometry" />
        </mxCell>
      </root>
    </mxGraphModel>
  </diagram>
</mxfile>
